<?xml version="1.0" encoding="UTF-8" standalone="yes"?>
<svg version="1.2" width="2000px" height="2000px" fill-rule="evenodd" baseProfile="tiny-ps" xmlns="http://www.w3.org/2000/svg">
  <title>Konsulin</title>
  <g>
    <path fill="#fefefe" d="M -0.5,-0.5 C 666.167,-0.5 1332.83,-0.5 1999.5,-0.5C 1999.5,666.167 1999.5,1332.83 1999.5,1999.5C 1332.83,1999.5 666.167,1999.5 -0.5,1999.5C -0.5,1332.83 -0.5,666.167 -0.5,-0.5 Z"/>
  </g>
  <g>
    <path fill="#000000" d="M 890.5,678.5 C 909.635,676.45 926.968,680.95 942.5,692C 981,730.5 1019.5,769 1058,807.5C 1073.3,830.818 1073.3,854.152 1058,877.5C 1038.65,897.014 1019.15,916.347 999.5,935.5C 949.514,886.014 899.68,836.347 850,786.5C 837.676,770.204 833.009,751.871 836,731.5C 843.247,702.417 861.414,684.75 890.5,678.5 Z"/>
  </g>
  <g>
    <path fill="#010101" d="M 1087.5,678.5 C 1121.85,676.076 1146.01,690.41 1160,721.5C 1167.24,745.06 1163.57,766.727 1149,786.5C 1123.67,811.833 1098.33,837.167 1073,862.5C 1079.21,840.678 1075.54,820.678 1062,802.5C 1052.11,794.29 1044.11,784.624 1038,773.5C 1023.87,735.885 1033.7,706.385 1067.5,685C 1073.99,681.891 1080.66,679.724 1087.5,678.5 Z"/>
  </g>
  <g>
    <path fill="#020202" d="M 874.5,914.5 C 891.452,912.643 905.119,918.476 915.5,932C 935.177,948.004 957.51,958.338 982.5,963C 967.159,972.187 964.325,984.353 974,999.5C 981.365,1006.4 989.865,1008.23 999.5,1005C 1016.43,1000.39 1033.26,995.56 1050,990.5C 1051.54,986.195 1050.21,983.528 1046,982.5C 1029.16,986.918 1012.33,991.418 995.5,996C 984.985,998.317 978.985,994.15 977.5,983.5C 978.072,979.191 980.072,975.691 983.5,973C 1001.99,967.377 1020.66,962.377 1039.5,958C 1053.95,953.442 1067.28,946.776 1079.5,938C 1087.5,931.333 1095.5,924.667 1103.5,918C 1121.52,910.562 1136.68,914.395 1149,929.5C 1156.82,944.232 1156.15,958.565 1147,972.5C 1099.94,1018.41 1043.44,1038.58 977.5,1033C 929.48,1026.41 888.647,1005.91 855,971.5C 843.487,953.474 845.321,936.974 860.5,922C 865.101,919.202 869.768,916.702 874.5,914.5 Z"/>
  </g>
  <g>
    <path fill="#060606" d="M 1273.5,1061.5 C 1278.18,1061.33 1282.85,1061.5 1287.5,1062C 1299.01,1065.17 1303.18,1072.67 1300,1084.5C 1298.09,1090.74 1293.93,1094.57 1287.5,1096C 1268.11,1098.94 1259.61,1090.78 1262,1071.5C 1264.82,1066.84 1268.65,1063.51 1273.5,1061.5 Z"/>
  </g>
  <g>
    <path fill="#020202" d="M 601.5,1077.5 C 601.167,1106.51 601.5,1135.51 602.5,1164.5C 603.107,1164.38 603.44,1164.04 603.5,1163.5C 616.293,1148.87 629.293,1134.37 642.5,1120C 649.63,1115.27 657.297,1114.27 665.5,1117C 671.043,1120.78 672.877,1125.94 671,1132.5C 660.153,1145.34 649.32,1158.18 638.5,1171C 648.569,1184.41 659.402,1197.24 671,1209.5C 678.386,1223.72 674.053,1231.39 658,1232.5C 650.073,1232.25 643.74,1228.92 639,1222.5C 627.372,1208.54 615.372,1194.87 603,1181.5C 602.667,1193.83 602.333,1206.17 602,1218.5C 600.093,1228.41 594.093,1233.07 584,1232.5C 574.98,1232.66 569.647,1228.33 568,1219.5C 567.333,1171.83 567.333,1124.17 568,1076.5C 570.999,1068.83 576.665,1065.16 585,1065.5C 593.778,1065.12 599.278,1069.12 601.5,1077.5 Z"/>
  </g>
  <g>
    <path fill="#030303" d="M 1202.5,1065.5 C 1209.26,1064.67 1215.59,1065.83 1221.5,1069C 1223.38,1071.25 1224.88,1073.75 1226,1076.5C 1226.33,1115.17 1226.67,1153.83 1227,1192.5C 1227.91,1197.74 1230.74,1201.58 1235.5,1204C 1253.72,1200.9 1259.56,1208.06 1253,1225.5C 1251.33,1229.17 1248.5,1231.33 1244.5,1232C 1213.06,1237.73 1195.56,1224.9 1192,1193.5C 1191.33,1154.83 1191.33,1116.17 1192,1077.5C 1193.94,1072.07 1197.44,1068.07 1202.5,1065.5 Z"/>
  </g>
  <g>
    <path fill="#3c3c3c" d="M 601.5,1077.5 C 602.167,1106.17 602.833,1134.83 603.5,1163.5C 603.44,1164.04 603.107,1164.38 602.5,1164.5C 601.5,1135.51 601.167,1106.51 601.5,1077.5 Z"/>
  </g>
  <g>
    <path fill="#030303" d="M 733.5,1114.5 C 749.727,1113.48 765.061,1116.65 779.5,1124C 798.876,1139.1 806.709,1158.94 803,1183.5C 799.08,1210.75 783.58,1226.92 756.5,1232C 732.026,1236.6 711.526,1229.77 695,1211.5C 680.257,1186.98 679.923,1162.31 694,1137.5C 704.111,1124.53 717.278,1116.86 733.5,1114.5 Z"/>
  </g>
  <g>
    <path fill="#030303" d="M 883.5,1114.5 C 911.251,1111.77 927.084,1124.1 931,1151.5C 931.667,1173.83 931.667,1196.17 931,1218.5C 927.719,1230.57 919.886,1235.07 907.5,1232C 901.798,1229.64 898.298,1225.47 897,1219.5C 896.667,1198.17 896.333,1176.83 896,1155.5C 893.604,1146.29 887.604,1141.63 878,1141.5C 867.301,1142.2 859.967,1147.53 856,1157.5C 854.712,1178.78 854.045,1200.12 854,1221.5C 852.5,1227 849,1230.5 843.5,1232C 835.545,1233.95 828.711,1232.12 823,1226.5C 822.138,1224.91 821.471,1223.25 821,1221.5C 820.021,1188.44 820.355,1155.44 822,1122.5C 823.981,1119.26 826.814,1117.09 830.5,1116C 844.671,1112.86 852.837,1118.36 855,1132.5C 862.344,1122.97 871.844,1116.97 883.5,1114.5 Z"/>
  </g>
  <g>
    <path fill="#040404" d="M 988.5,1114.5 C 1005.27,1113.13 1021.27,1115.96 1036.5,1123C 1043.49,1128.64 1044.33,1135.14 1039,1142.5C 1035.82,1145.84 1031.98,1147.01 1027.5,1146C 1014.04,1138.86 1000.04,1137.2 985.5,1141C 978.892,1147.12 978.892,1153.12 985.5,1159C 999.191,1161.89 1012.86,1164.89 1026.5,1168C 1042.51,1174.52 1048.68,1186.35 1045,1203.5C 1040.13,1219.03 1029.63,1228.2 1013.5,1231C 999.843,1232.92 986.177,1232.92 972.5,1231C 965.87,1229.46 959.537,1227.12 953.5,1224C 947.885,1219.87 946.052,1214.37 948,1207.5C 950.8,1202.52 954.966,1200.35 960.5,1201C 976.609,1208.76 993.276,1210.43 1010.5,1206C 1015.77,1200.59 1015.77,1195.26 1010.5,1190C 996.2,1186.56 981.867,1183.23 967.5,1180C 952.446,1172.39 946.613,1160.22 950,1143.5C 952.898,1133.94 958.731,1126.77 967.5,1122C 974.295,1118.57 981.295,1116.07 988.5,1114.5 Z"/>
  </g>
  <g>
    <path fill="#040404" d="M 1070.5,1115.5 C 1080.49,1113.32 1088.33,1116.32 1094,1124.5C 1095.3,1147.44 1095.97,1170.44 1096,1193.5C 1099.42,1204.8 1106.92,1208.63 1118.5,1205C 1125.57,1202.93 1130.41,1198.43 1133,1191.5C 1134.29,1170.22 1134.96,1148.88 1135,1127.5C 1137.63,1118.93 1143.46,1114.93 1152.5,1115.5C 1160.42,1114.88 1165.92,1118.21 1169,1125.5C 1169.67,1157.5 1169.67,1189.5 1169,1221.5C 1164.77,1231.53 1157.27,1235.03 1146.5,1232C 1139.89,1228.97 1136.06,1223.8 1135,1216.5C 1129.31,1224.84 1121.48,1230.01 1111.5,1232C 1082,1237.02 1065.17,1224.86 1061,1195.5C 1060.33,1172.17 1060.33,1148.83 1061,1125.5C 1063.02,1120.98 1066.19,1117.65 1070.5,1115.5 Z"/>
  </g>
  <g>
    <path fill="#030303" d="M 1273.5,1115.5 C 1279.76,1114.87 1285.76,1115.71 1291.5,1118C 1295.09,1121.02 1297.26,1124.85 1298,1129.5C 1298.67,1159.17 1298.67,1188.83 1298,1218.5C 1296.01,1228.18 1290.01,1232.84 1280,1232.5C 1270.93,1232.1 1265.6,1227.43 1264,1218.5C 1263.33,1188.17 1263.33,1157.83 1264,1127.5C 1265.19,1121.82 1268.36,1117.82 1273.5,1115.5 Z"/>
  </g>
  <g>
    <path fill="#030303" d="M 1383.5,1114.5 C 1411.3,1111.83 1427.14,1124.16 1431,1151.5C 1431.67,1173.83 1431.67,1196.17 1431,1218.5C 1429.22,1228.1 1423.39,1232.77 1413.5,1232.5C 1406.46,1232.73 1401.29,1229.73 1398,1223.5C 1396.72,1200.54 1396.05,1177.54 1396,1154.5C 1392.19,1144 1384.69,1139.84 1373.5,1142C 1364.76,1144.4 1358.93,1149.9 1356,1158.5C 1355.67,1178.5 1355.33,1198.5 1355,1218.5C 1351.72,1230.57 1343.89,1235.07 1331.5,1232C 1326,1230.5 1322.5,1227 1321,1221.5C 1320.02,1188.77 1320.36,1156.11 1322,1123.5C 1323.46,1121.04 1325.29,1118.87 1327.5,1117C 1332.75,1115.49 1338.08,1115.16 1343.5,1116C 1350.87,1118.88 1354.71,1124.38 1355,1132.5C 1362.4,1123.06 1371.9,1117.06 1383.5,1114.5 Z"/>
  </g>
  <g>
    <path fill="#fbfbfb" d="M 738.5,1140.5 C 754.944,1139.79 764.778,1147.45 768,1163.5C 769.843,1175.41 768.176,1186.74 763,1197.5C 756.241,1205.32 747.741,1208.15 737.5,1206C 727.039,1203.2 721.206,1196.37 720,1185.5C 717.056,1173.3 718.389,1161.63 724,1150.5C 728.012,1145.76 732.845,1142.43 738.5,1140.5 Z"/>
  </g>
  <g>
    <path fill="#000000" d="M 819.5,1276.5 C 820.5,1276.5 821.5,1276.5 822.5,1276.5C 822.5,1288.17 822.5,1299.83 822.5,1311.5C 821.5,1311.5 820.5,1311.5 819.5,1311.5C 819.5,1299.83 819.5,1288.17 819.5,1276.5 Z"/>
  </g>
  <g>
    <path fill="#000000" d="M 955.5,1276.5 C 956.5,1276.5 957.5,1276.5 958.5,1276.5C 958.5,1288.17 958.5,1299.83 958.5,1311.5C 957.5,1311.5 956.5,1311.5 955.5,1311.5C 955.5,1299.83 955.5,1288.17 955.5,1276.5 Z"/>
  </g>
  <g>
    <path fill="#0f0f0f" d="M 977.5,1276.5 C 977.334,1283.84 977.5,1291.17 978,1298.5C 981.833,1294.67 985.667,1290.83 989.5,1287C 990.833,1286.33 992.167,1286.33 993.5,1287C 990.059,1289.77 987.393,1293.1 985.5,1297C 988.122,1301.74 991.122,1306.24 994.5,1310.5C 993.167,1311.83 991.833,1311.83 990.5,1310.5C 987.858,1306.69 985.025,1303.02 982,1299.5C 977.948,1302.46 976.448,1306.46 977.5,1311.5C 976.5,1311.5 975.5,1311.5 974.5,1311.5C 974.5,1299.83 974.5,1288.17 974.5,1276.5C 975.5,1276.5 976.5,1276.5 977.5,1276.5 Z"/>
  </g>
  <g>
    <path fill="#0e0e0e" d="M 1275.5,1276.5 C 1276.5,1276.5 1277.5,1276.5 1278.5,1276.5C 1278.33,1283.84 1278.5,1291.17 1279,1298.5C 1282.83,1294.67 1286.67,1290.83 1290.5,1287C 1291.83,1286.33 1293.17,1286.33 1294.5,1287C 1291.82,1290.34 1289.15,1293.68 1286.5,1297C 1289.12,1301.74 1292.12,1306.24 1295.5,1310.5C 1294.17,1311.83 1292.83,1311.83 1291.5,1310.5C 1288.83,1306.83 1286.17,1303.17 1283.5,1299.5C 1278.97,1302.2 1277.31,1306.2 1278.5,1311.5C 1277.5,1311.5 1276.5,1311.5 1275.5,1311.5C 1275.5,1299.83 1275.5,1288.17 1275.5,1276.5 Z"/>
  </g>
  <g>
    <path fill="#161616" d="M 658.5,1276.5 C 663.511,1276.33 668.511,1276.5 673.5,1277C 680.358,1279.55 682.858,1284.38 681,1291.5C 679.954,1293.09 678.787,1294.59 677.5,1296C 672.599,1297.33 667.599,1297.83 662.5,1297.5C 662.5,1302.17 662.5,1306.83 662.5,1311.5C 661.167,1311.5 659.833,1311.5 658.5,1311.5C 658.5,1299.83 658.5,1288.17 658.5,1276.5 Z"/>
  </g>
  <g>
    <path fill="#111111" d="M 891.5,1276.5 C 892.5,1276.5 893.5,1276.5 894.5,1276.5C 894.5,1278.17 894.5,1279.83 894.5,1281.5C 893.5,1281.5 892.5,1281.5 891.5,1281.5C 891.5,1279.83 891.5,1278.17 891.5,1276.5 Z"/>
  </g>
  <g>
    <path fill="#0d0d0d" d="M 999.5,1276.5 C 1000.5,1276.5 1001.5,1276.5 1002.5,1276.5C 1002.5,1278.17 1002.5,1279.83 1002.5,1281.5C 1001.5,1281.5 1000.5,1281.5 999.5,1281.5C 999.5,1279.83 999.5,1278.17 999.5,1276.5 Z"/>
  </g>
  <g>
    <path fill="#151515" d="M 1036.5,1276.5 C 1037.5,1276.5 1038.5,1276.5 1039.5,1276.5C 1039.5,1278.17 1039.5,1279.83 1039.5,1281.5C 1038.5,1281.5 1037.5,1281.5 1036.5,1281.5C 1036.5,1279.83 1036.5,1278.17 1036.5,1276.5 Z"/>
  </g>
  <g>
    <path fill="#7e7e7e" d="M 977.5,1276.5 C 976.5,1276.5 975.5,1276.5 974.5,1276.5C 974.5,1288.17 974.5,1299.83 974.5,1311.5C 973.505,1299.68 973.172,1287.68 973.5,1275.5C 975.099,1275.23 976.432,1275.57 977.5,1276.5 Z"/>
  </g>
  <g>
    <path fill="#fafafa" d="M 662.5,1280.5 C 666.514,1280.33 670.514,1280.5 674.5,1281C 678.115,1284.66 678.448,1288.66 675.5,1293C 671.27,1294.29 666.936,1294.79 662.5,1294.5C 662.5,1289.83 662.5,1285.17 662.5,1280.5 Z"/>
  </g>
  <g>
    <path fill="#090909" d="M 1021.5,1289.5 C 1019.5,1289.5 1017.5,1289.5 1015.5,1289.5C 1015.18,1295.03 1015.51,1300.36 1016.5,1305.5C 1017.05,1308.08 1018.71,1309.08 1021.5,1308.5C 1021.5,1309.5 1021.5,1310.5 1021.5,1311.5C 1018.64,1311.95 1016.14,1311.28 1014,1309.5C 1012.62,1302.92 1012.12,1296.26 1012.5,1289.5C 1011.17,1289.5 1009.83,1289.5 1008.5,1289.5C 1008.5,1288.5 1008.5,1287.5 1008.5,1286.5C 1011.78,1285.97 1013.11,1283.97 1012.5,1280.5C 1013.5,1280.5 1014.5,1280.5 1015.5,1280.5C 1015.5,1282.5 1015.5,1284.5 1015.5,1286.5C 1017.5,1286.5 1019.5,1286.5 1021.5,1286.5C 1021.5,1287.5 1021.5,1288.5 1021.5,1289.5 Z"/>
  </g>
  <g>
    <path fill="#969696" d="M 1036.5,1276.5 C 1036.5,1278.17 1036.5,1279.83 1036.5,1281.5C 1037.5,1281.5 1038.5,1281.5 1039.5,1281.5C 1038.43,1282.43 1037.1,1282.77 1035.5,1282.5C 1035.21,1280.26 1035.54,1278.26 1036.5,1276.5 Z"/>
  </g>
  <g>
    <path fill="#070707" d="M 1331.5,1306.5 C 1331.5,1300.83 1331.5,1295.17 1331.5,1289.5C 1329.83,1289.5 1328.17,1289.5 1326.5,1289.5C 1326.5,1288.5 1326.5,1287.5 1326.5,1286.5C 1330.31,1286.35 1331.98,1284.35 1331.5,1280.5C 1332.5,1280.5 1333.5,1280.5 1334.5,1280.5C 1334.5,1282.5 1334.5,1284.5 1334.5,1286.5C 1336.17,1286.5 1337.83,1286.5 1339.5,1286.5C 1339.5,1287.5 1339.5,1288.5 1339.5,1289.5C 1337.83,1289.5 1336.17,1289.5 1334.5,1289.5C 1334.33,1295.18 1334.5,1300.84 1335,1306.5C 1336.44,1308.16 1338.28,1308.82 1340.5,1308.5C 1340.5,1309.5 1340.5,1310.5 1340.5,1311.5C 1335.83,1312.58 1332.83,1310.92 1331.5,1306.5 Z"/>
  </g>
  <g>
    <path fill="#151515" d="M 742.5,1285.5 C 747.954,1285.2 752.287,1287.2 755.5,1291.5C 755.167,1292.5 754.5,1293.17 753.5,1293.5C 747.812,1287.87 742.645,1288.21 738,1294.5C 736.807,1299.15 737.64,1303.32 740.5,1307C 745.44,1309.4 749.773,1308.57 753.5,1304.5C 755.101,1305.03 755.601,1306.03 755,1307.5C 750.909,1311.3 746.076,1312.47 740.5,1311C 733.074,1305.58 731.574,1298.75 736,1290.5C 737.965,1288.45 740.132,1286.78 742.5,1285.5 Z"/>
  </g>
  <g>
    <path fill="#0d0d0d" d="M 879.5,1313.5 C 880.629,1311.37 880.796,1309.04 880,1306.5C 879.283,1307.04 878.783,1307.71 878.5,1308.5C 864.787,1312.96 858.62,1307.96 860,1293.5C 865.116,1284.78 871.616,1283.44 879.5,1289.5C 880.386,1288.68 880.719,1287.68 880.5,1286.5C 881.5,1286.5 882.5,1286.5 883.5,1286.5C 883.923,1296.58 883.423,1306.58 882,1316.5C 876.568,1322.14 870.401,1322.98 863.5,1319C 861.355,1317.18 861.355,1315.68 863.5,1314.5C 869.379,1320.17 874.713,1319.84 879.5,1313.5 Z"/>
  </g>
  <g>
    <path fill="#1e1e1e" d="M 890.5,1286.5 C 891.833,1286.5 893.167,1286.5 894.5,1286.5C 894.5,1294.83 894.5,1303.17 894.5,1311.5C 893.167,1311.5 891.833,1311.5 890.5,1311.5C 890.5,1303.17 890.5,1294.83 890.5,1286.5 Z"/>
  </g>
  <g>
    <path fill="#000000" d="M 999.5,1286.5 C 1000.5,1286.5 1001.5,1286.5 1002.5,1286.5C 1002.5,1294.83 1002.5,1303.17 1002.5,1311.5C 1001.5,1311.5 1000.5,1311.5 999.5,1311.5C 999.5,1303.17 999.5,1294.83 999.5,1286.5 Z"/>
  </g>
  <g>
    <path fill="#1e1e1e" d="M 1035.5,1286.5 C 1036.83,1286.5 1038.17,1286.5 1039.5,1286.5C 1039.5,1294.83 1039.5,1303.17 1039.5,1311.5C 1038.17,1311.5 1036.83,1311.5 1035.5,1311.5C 1035.5,1303.17 1035.5,1294.83 1035.5,1286.5 Z"/>
  </g>
  <g>
    <path fill="#1b1b1b" d="M 1046.5,1286.5 C 1048.45,1286.23 1049.95,1286.89 1051,1288.5C 1055.27,1285.89 1059.6,1285.89 1064,1288.5C 1064.67,1289.83 1065.33,1291.17 1066,1292.5C 1066.5,1298.82 1066.67,1305.16 1066.5,1311.5C 1065.17,1311.5 1063.83,1311.5 1062.5,1311.5C 1062.67,1305.16 1062.5,1298.82 1062,1292.5C 1058.33,1288.5 1054.67,1288.5 1051,1292.5C 1050.5,1298.82 1050.33,1305.16 1050.5,1311.5C 1049.17,1311.5 1047.83,1311.5 1046.5,1311.5C 1046.5,1303.17 1046.5,1294.83 1046.5,1286.5 Z"/>
  </g>
  <g>
    <path fill="#111111" d="M 1078.5,1286.5 C 1079.83,1286.5 1081.17,1286.5 1082.5,1286.5C 1084.3,1293.4 1086.8,1300.07 1090,1306.5C 1092.5,1300.17 1095,1293.83 1097.5,1287.5C 1098.72,1286.39 1100.06,1286.22 1101.5,1287C 1097.2,1297.09 1093.04,1307.26 1089,1317.5C 1086.3,1320.87 1082.8,1322.2 1078.5,1321.5C 1078.5,1320.5 1078.5,1319.5 1078.5,1318.5C 1083.51,1318.83 1086.51,1316.5 1087.5,1311.5C 1084.69,1303.07 1081.69,1294.74 1078.5,1286.5 Z"/>
  </g>
  <g>
    <path fill="#131313" d="M 1111.5,1286.5 C 1124.77,1284.6 1130.6,1290.27 1129,1303.5C 1125.35,1310.74 1119.51,1313.24 1111.5,1311C 1105.63,1307.06 1103.46,1301.56 1105,1294.5C 1106.3,1291.04 1108.47,1288.37 1111.5,1286.5 Z"/>
  </g>
  <g>
    <path fill="#161616" d="M 1135.5,1286.5 C 1136.5,1286.5 1137.5,1286.5 1138.5,1286.5C 1138.33,1292.51 1138.5,1298.51 1139,1304.5C 1141.63,1308.63 1145.13,1309.46 1149.5,1307C 1150.13,1306.25 1150.63,1305.42 1151,1304.5C 1151.5,1298.51 1151.67,1292.51 1151.5,1286.5C 1152.83,1286.5 1154.17,1286.5 1155.5,1286.5C 1155.5,1294.83 1155.5,1303.17 1155.5,1311.5C 1153.55,1311.77 1152.05,1311.11 1151,1309.5C 1146.67,1312.17 1142.33,1312.17 1138,1309.5C 1137.33,1308.17 1136.67,1306.83 1136,1305.5C 1135.5,1299.18 1135.33,1292.84 1135.5,1286.5 Z"/>
  </g>
  <g>
    <path fill="#111111" d="M 1322.5,1299.5 C 1315.83,1299.5 1309.17,1299.5 1302.5,1299.5C 1302.26,1300.79 1302.6,1301.79 1303.5,1302.5C 1305.54,1308.13 1309.54,1309.96 1315.5,1308C 1316.69,1306.65 1318.02,1305.48 1319.5,1304.5C 1320.5,1304.83 1321.17,1305.5 1321.5,1306.5C 1317.62,1311.24 1312.62,1312.74 1306.5,1311C 1300.02,1306.92 1297.86,1301.08 1300,1293.5C 1304.04,1286.39 1309.87,1284.56 1317.5,1288C 1320.95,1291.06 1322.62,1294.9 1322.5,1299.5 Z"/>
  </g>
  <g>
    <path fill="#f3f3f3" d="M 868.5,1289.5 C 878.353,1289.51 881.853,1294.18 879,1303.5C 873.924,1308.76 868.924,1308.76 864,1303.5C 861.227,1297.39 862.727,1292.73 868.5,1289.5 Z"/>
  </g>
  <g>
    <path fill="#f6f6f6" d="M 1113.5,1289.5 C 1123.19,1289.18 1127.03,1293.85 1125,1303.5C 1119.62,1310.16 1114.28,1310.16 1109,1303.5C 1107.31,1297.61 1108.81,1292.94 1113.5,1289.5 Z"/>
  </g>
  <g>
    <path fill="#f8f8f8" d="M 1318.5,1296.5 C 1313.06,1297.11 1308.06,1296.44 1303.5,1294.5C 1305.72,1289.89 1309.39,1288.39 1314.5,1290C 1316.92,1291.57 1318.26,1293.74 1318.5,1296.5 Z"/>
  </g>
  <g>
    <path fill="#121212" d="M 707.5,1286.5 C 708.833,1286.5 710.167,1286.5 711.5,1286.5C 713.302,1293.4 715.802,1300.07 719,1306.5C 721.5,1300.17 724,1293.83 726.5,1287.5C 727.723,1286.39 729.056,1286.22 730.5,1287C 726.204,1297.09 722.037,1307.26 718,1317.5C 715.409,1321.05 711.909,1322.38 707.5,1321.5C 707.5,1320.5 707.5,1319.5 707.5,1318.5C 712.508,1318.83 715.508,1316.5 716.5,1311.5C 713.691,1303.07 710.691,1294.74 707.5,1286.5 Z"/>
  </g>
  <g>
    <path fill="#131313" d="M 797.5,1285.5 C 809.681,1286.18 814.514,1292.52 812,1304.5C 807.513,1311.55 801.346,1313.38 793.5,1310C 784.611,1300.17 785.944,1292 797.5,1285.5 Z"/>
  </g>
  <g>
    <path fill="#f6f6f6" d="M 797.5,1289.5 C 808.628,1290.09 811.795,1295.42 807,1305.5C 800.231,1310.49 795.231,1309.16 792,1301.5C 790.873,1296.09 792.707,1292.09 797.5,1289.5 Z"/>
  </g>
  <g>
    <path fill="#141414" d="M 838.5,1285.5 C 852.043,1286.57 856.543,1293.57 852,1306.5C 847.053,1311.68 841.219,1312.85 834.5,1310C 825.611,1300.17 826.944,1292 838.5,1285.5 Z"/>
  </g>
  <g>
    <path fill="#f6f6f6" d="M 837.5,1289.5 C 848.358,1289.19 852.191,1294.19 849,1304.5C 844,1309.83 839,1309.83 834,1304.5C 831.321,1298.56 832.488,1293.56 837.5,1289.5 Z"/>
  </g>
  <g>
    <path fill="#141414" d="M 1253.5,1286.5 C 1256.85,1286.33 1260.18,1286.5 1263.5,1287C 1265.64,1287.97 1267.31,1289.47 1268.5,1291.5C 1268.17,1292.5 1267.5,1293.17 1266.5,1293.5C 1261.3,1288.21 1256.13,1288.21 1251,1293.5C 1249.09,1307.77 1254.26,1311.44 1266.5,1304.5C 1268.1,1305.03 1268.6,1306.03 1268,1307.5C 1263.91,1311.3 1259.08,1312.47 1253.5,1311C 1247.03,1306.87 1244.86,1301.04 1247,1293.5C 1248.69,1290.64 1250.86,1288.31 1253.5,1286.5 Z"/>
  </g>
  <g>
    <path fill="#101010" d="M 762.5,1276.5 C 763.5,1276.5 764.5,1276.5 765.5,1276.5C 765.176,1280.55 765.509,1284.55 766.5,1288.5C 773.035,1284.83 778.201,1286.16 782,1292.5C 782.5,1298.82 782.666,1305.16 782.5,1311.5C 781.167,1311.5 779.833,1311.5 778.5,1311.5C 778.666,1305.16 778.5,1298.82 778,1292.5C 773.648,1288.34 769.648,1288.67 766,1293.5C 765.501,1299.49 765.334,1305.49 765.5,1311.5C 764.5,1311.5 763.5,1311.5 762.5,1311.5C 762.5,1299.83 762.5,1288.17 762.5,1276.5 Z"/>
  </g>
  <g>
    <path fill="#030303" d="M 1162.5,1286.5 C 1164.14,1286.48 1165.48,1287.15 1166.5,1288.5C 1168.51,1286.83 1170.84,1286.16 1173.5,1286.5C 1173.5,1287.5 1173.5,1288.5 1173.5,1289.5C 1170.96,1289.1 1168.79,1289.77 1167,1291.5C 1165.62,1298.08 1165.12,1304.74 1165.5,1311.5C 1164.5,1311.5 1163.5,1311.5 1162.5,1311.5C 1162.5,1303.17 1162.5,1294.83 1162.5,1286.5 Z"/>
  </g>
  <g>
    <path fill="#151515" d="M 909.5,1285.5 C 914.954,1285.2 919.287,1287.2 922.5,1291.5C 922.167,1292.5 921.5,1293.17 920.5,1293.5C 914.812,1287.87 909.645,1288.21 905,1294.5C 903.924,1299.07 904.757,1303.24 907.5,1307C 912.44,1309.4 916.773,1308.57 920.5,1304.5C 922.101,1305.03 922.601,1306.03 922,1307.5C 917.909,1311.3 913.076,1312.47 907.5,1311C 900.414,1305.48 898.914,1298.65 903,1290.5C 904.965,1288.45 907.132,1286.78 909.5,1285.5 Z"/>
  </g>
  <g>
    <path fill="#161616" d="M 934.5,1286.5 C 937.518,1286.34 940.518,1286.5 943.5,1287C 945.552,1287.93 947.052,1289.43 948,1291.5C 948.5,1298.16 948.666,1304.83 948.5,1311.5C 947.167,1311.5 945.833,1311.5 944.5,1311.5C 944.649,1310.45 944.483,1309.45 944,1308.5C 940.319,1311.36 936.152,1312.19 931.5,1311C 927.885,1307.34 927.552,1303.34 930.5,1299C 934.956,1297.58 939.456,1296.41 944,1295.5C 944.825,1293.3 944.325,1291.47 942.5,1290C 938.102,1288.62 934.602,1289.79 932,1293.5C 931.167,1292.67 930.333,1291.83 929.5,1291C 931.063,1289.26 932.73,1287.76 934.5,1286.5 Z"/>
  </g>
  <g>
    <path fill="#1b1b1b" d="M 1195.5,1285.5 C 1206.7,1285.86 1211.53,1291.52 1210,1302.5C 1207.42,1310.71 1201.92,1313.54 1193.5,1311C 1192.07,1310.53 1190.9,1309.7 1190,1308.5C 1189.5,1312.49 1189.33,1316.49 1189.5,1320.5C 1188.17,1320.5 1186.83,1320.5 1185.5,1320.5C 1185.5,1309.17 1185.5,1297.83 1185.5,1286.5C 1186.83,1286.5 1188.17,1286.5 1189.5,1286.5C 1189.35,1287.55 1189.52,1288.55 1190,1289.5C 1191.81,1288.02 1193.65,1286.69 1195.5,1285.5 Z"/>
  </g>
  <g>
    <path fill="#f6f6f6" d="M 1195.5,1289.5 C 1204.99,1289.44 1208.49,1294.11 1206,1303.5C 1203.46,1308.07 1199.63,1309.57 1194.5,1308C 1187.54,1301.27 1187.87,1295.1 1195.5,1289.5 Z"/>
  </g>
  <g>
    <path fill="#777777" d="M 1021.5,1289.5 C 1020.08,1290.45 1018.41,1290.78 1016.5,1290.5C 1016.5,1295.5 1016.5,1300.5 1016.5,1305.5C 1015.51,1300.36 1015.18,1295.03 1015.5,1289.5C 1017.5,1289.5 1019.5,1289.5 1021.5,1289.5 Z"/>
  </g>
  <g>
    <path fill="#131313" d="M 1225.5,1285.5 C 1239.03,1286.55 1243.53,1293.55 1239,1306.5C 1234.05,1311.68 1228.22,1312.85 1221.5,1310C 1212.61,1300.17 1213.94,1292 1225.5,1285.5 Z"/>
  </g>
  <g>
    <path fill="#f6f6f6" d="M 1224.5,1289.5 C 1235.36,1289.19 1239.19,1294.19 1236,1304.5C 1231,1309.83 1226,1309.83 1221,1304.5C 1218.32,1298.56 1219.49,1293.56 1224.5,1289.5 Z"/>
  </g>
  <g>
    <path fill="#9f9f9f" d="M 1326.5,1289.5 C 1328.17,1289.5 1329.83,1289.5 1331.5,1289.5C 1331.5,1295.17 1331.5,1300.83 1331.5,1306.5C 1330.51,1301.36 1330.18,1296.03 1330.5,1290.5C 1328.9,1290.77 1327.57,1290.43 1326.5,1289.5 Z"/>
  </g>
  <g>
    <path fill="#4d4d4d" d="M 1303.5,1294.5 C 1308.06,1296.44 1313.06,1297.11 1318.5,1296.5C 1313.36,1297.49 1308.03,1297.82 1302.5,1297.5C 1302.26,1296.21 1302.6,1295.21 1303.5,1294.5 Z"/>
  </g>
  <g>
    <path fill="#f4f4f4" d="M 937.5,1299.5 C 939.833,1299.5 942.167,1299.5 944.5,1299.5C 944.198,1306.63 940.531,1309.47 933.5,1308C 930.833,1305.67 930.833,1303.33 933.5,1301C 935.058,1300.79 936.391,1300.29 937.5,1299.5 Z"/>
  </g>
  <g>
    <path fill="#757575" d="M 1322.5,1299.5 C 1315.93,1299.85 1309.6,1300.85 1303.5,1302.5C 1302.6,1301.79 1302.26,1300.79 1302.5,1299.5C 1309.17,1299.5 1315.83,1299.5 1322.5,1299.5 Z"/>
  </g>
  <g>
    <path fill="#171717" d="M 692.5,1285.5 C 697.304,1285.23 700.97,1287.07 703.5,1291C 703.387,1292.28 702.72,1293.11 701.5,1293.5C 699.171,1289.75 695.837,1288.58 691.5,1290C 690.24,1291.81 690.24,1293.65 691.5,1295.5C 696.298,1296.81 700.465,1299.15 704,1302.5C 703.569,1311.11 699.069,1313.95 690.5,1311C 686.895,1309.62 685.728,1307.46 687,1304.5C 688.775,1305.27 690.275,1306.44 691.5,1308C 694.669,1308.98 697.503,1308.48 700,1306.5C 700.781,1305.06 700.614,1303.72 699.5,1302.5C 695.713,1301.29 692.046,1299.79 688.5,1298C 685.141,1292.28 686.474,1288.11 692.5,1285.5 Z"/>
  </g>
  <g>
    <path fill="#989898" d="M 879.5,1313.5 C 879.784,1311.59 879.451,1309.92 878.5,1308.5C 878.783,1307.71 879.283,1307.04 880,1306.5C 880.796,1309.04 880.629,1311.37 879.5,1313.5 Z"/>
  </g>
</svg>
